<?xml version="1.0" encoding="utf-8"?>
<!-- Generator: Adobe Illustrator 21.0.0, SVG Export Plug-In . SVG Version: 6.00 Build 0)  -->
<svg version="1.1" id="Layer_1" xmlns="http://www.w3.org/2000/svg" xmlns:xlink="http://www.w3.org/1999/xlink" x="0px" y="0px"
	 viewBox="0 0 841.9 171.2" style="enable-background:new 0 0 841.9 171.2;" xml:space="preserve">
<style type="text/css">
	.st0{fill:#FFFFFF;}
	.st1{fill:none;}
</style>
<g>
	<g>
		<path class="st0" d="M86.3,83.3c1.2,0,2.1,0.9,2.3,2l11.5-0.1c-0.2-7.5-6.4-13.5-13.9-13.4c-7.5,0-13.6,6.1-13.8,13.6L84,85.3
			C84.2,84.2,85.1,83.3,86.3,83.3z"/>
		<path class="st0" d="M86.3,87.9c-1.2,0-2.1-0.9-2.3-2L72.5,86c0.2,7.5,6.4,13.5,13.9,13.4c7.5,0,13.6-6.1,13.8-13.6L88.6,86
			C88.4,87.1,87.5,87.9,86.3,87.9z"/>
		<path class="st0" d="M86.1,35.8c-27.5,0.1-49.7,22.5-49.5,50c0.1,27.5,22.5,49.7,50,49.5c27.5-0.1,49.7-22.5,49.5-50
			C135.9,57.9,113.5,35.7,86.1,35.8z M55.1,116.1c-0.3-0.3-0.8-0.8-1.4-1.4c-1.2-1.2-2.9-3.1-4.7-5.7c-1.8-2.6-3.6-5.9-4.9-9.8
			c-1.4-3.9-2.2-8.5-2.2-13.3c0-4.8,0.8-9.4,2.1-13.3c1.3-4,3.1-7.3,4.8-9.9c1.7-2.6,3.4-4.5,4.6-5.8c0.6-0.6,1.1-1.1,1.4-1.4
			c0.3-0.3,0.5-0.5,0.5-0.5s-0.2,0.2-0.5,0.5c-0.3,0.4-0.8,0.8-1.3,1.5c-1.1,1.3-2.6,3.4-4.1,6c-1.5,2.7-3.1,6-4.2,9.9
			c-1.1,3.9-1.8,8.3-1.8,12.9c0,4.6,0.7,9,1.9,12.9c1.1,3.9,2.7,7.2,4.3,9.8c1.6,2.6,3.1,4.7,4.2,6
			C54.4,115.2,54.9,115.7,55.1,116.1c0.3,0.3,0.5,0.5,0.5,0.5S55.5,116.4,55.1,116.1z M58,110.9c-0.3-0.3-0.6-0.6-0.9-0.9
			c-0.3-0.3-0.6-0.7-1-1.1c-0.3-0.4-0.7-0.9-1.1-1.3c-0.2-0.2-0.4-0.5-0.6-0.7c-0.2-0.3-0.4-0.5-0.5-0.8c-0.7-1.1-1.6-2.4-2.3-3.8
			c-0.3-0.7-0.8-1.4-1.1-2.2c-0.3-0.8-0.6-1.6-0.9-2.5c-1.1-3.4-1.9-7.4-2-11.6c0-4.2,0.8-8.2,1.9-11.6c0.3-0.8,0.6-1.7,0.9-2.5
			c0.3-0.8,0.7-1.5,1.1-2.3c0.7-1.5,1.5-2.7,2.2-3.9c0.2-0.3,0.4-0.6,0.5-0.8c0.2-0.3,0.4-0.5,0.6-0.7c0.4-0.5,0.7-0.9,1.1-1.4
			c0.3-0.4,0.6-0.8,1-1.1c0.3-0.3,0.6-0.6,0.9-0.9c1.1-1.1,1.7-1.7,1.7-1.7s-0.5,0.7-1.5,1.8c-0.2,0.3-0.5,0.6-0.8,1
			c-0.3,0.3-0.5,0.8-0.8,1.2c-0.3,0.4-0.6,0.9-0.9,1.4c-0.2,0.3-0.3,0.5-0.5,0.8c-0.1,0.3-0.3,0.6-0.5,0.9c-0.6,1.2-1.4,2.4-1.9,3.9
			c-0.3,0.7-0.7,1.4-0.9,2.2c-0.3,0.8-0.5,1.6-0.8,2.4c-0.9,3.4-1.5,7.2-1.6,11.2c0,4,0.7,7.8,1.7,11.2c0.3,0.8,0.5,1.6,0.8,2.4
			c0.3,0.8,0.6,1.5,0.9,2.2c0.6,1.5,1.3,2.7,2,3.9c0.2,0.3,0.3,0.6,0.5,0.9c0.2,0.3,0.3,0.5,0.5,0.8c0.3,0.5,0.7,1,1,1.4
			c0.3,0.4,0.6,0.9,0.9,1.2c0.3,0.4,0.6,0.7,0.8,1c1,1.2,1.5,1.8,1.5,1.8S59,111.9,58,110.9z M62.2,107.1c-0.2-0.2-0.5-0.5-0.8-0.7
			c-0.3-0.3-0.5-0.6-0.8-1c-0.3-0.4-0.6-0.7-0.9-1.1c-0.2-0.2-0.3-0.4-0.5-0.6c-0.2-0.2-0.3-0.5-0.5-0.7c-0.6-1-1.4-2-1.9-3.3
			c-0.3-0.6-0.7-1.2-0.9-1.9c-0.3-0.7-0.5-1.4-0.8-2.1c-1-2.9-1.7-6.3-1.7-9.9c0-3.6,0.7-7,1.6-9.9c0.3-0.7,0.5-1.4,0.8-2.1
			c0.3-0.7,0.6-1.3,0.9-1.9c0.6-1.2,1.3-2.3,1.9-3.3c0.2-0.2,0.3-0.5,0.5-0.7c0.2-0.2,0.3-0.4,0.5-0.6c0.3-0.4,0.6-0.8,0.9-1.1
			c0.3-0.3,0.5-0.7,0.8-1c0.3-0.3,0.5-0.5,0.8-0.8c0.9-0.9,1.4-1.4,1.4-1.4s-0.4,0.6-1.2,1.6c-0.2,0.2-0.4,0.5-0.7,0.8
			c-0.2,0.3-0.4,0.7-0.7,1c-0.2,0.4-0.5,0.8-0.8,1.2c-0.1,0.2-0.3,0.4-0.4,0.7c-0.1,0.2-0.3,0.5-0.4,0.7c-0.5,1-1.1,2.1-1.6,3.3
			c-0.2,0.6-0.5,1.2-0.8,1.9c-0.2,0.7-0.4,1.4-0.6,2.1c-0.8,2.9-1.3,6.1-1.3,9.5c0,3.4,0.6,6.6,1.4,9.5c0.2,0.7,0.4,1.4,0.7,2.1
			c0.2,0.7,0.5,1.3,0.8,1.9c0.5,1.2,1.1,2.3,1.6,3.3c0.1,0.2,0.3,0.5,0.4,0.7c0.1,0.2,0.3,0.4,0.4,0.7c0.3,0.4,0.5,0.8,0.8,1.2
			c0.3,0.4,0.5,0.7,0.7,1c0.2,0.3,0.5,0.6,0.7,0.8c0.8,1,1.2,1.5,1.2,1.5S63.1,108,62.2,107.1z M66.5,103.3
			c-0.4-0.4-0.9-0.8-1.3-1.4c-0.2-0.3-0.5-0.6-0.8-0.9c-0.1-0.2-0.3-0.3-0.4-0.5c-0.1-0.2-0.3-0.4-0.4-0.6c-0.5-0.8-1.1-1.6-1.6-2.7
			c-0.2-0.5-0.6-1-0.8-1.6c-0.2-0.6-0.4-1.1-0.7-1.7c-0.8-2.4-1.4-5.2-1.4-8.2c0-3,0.6-5.8,1.4-8.2c0.2-0.6,0.4-1.2,0.7-1.7
			c0.2-0.6,0.5-1.1,0.8-1.6c0.5-1,1.1-1.9,1.6-2.7c0.1-0.2,0.3-0.4,0.4-0.6c0.1-0.2,0.3-0.3,0.4-0.5c0.3-0.3,0.5-0.6,0.8-0.9
			c0.5-0.6,0.9-1,1.3-1.4c0.8-0.7,1.2-1.1,1.2-1.1s-0.4,0.5-1,1.3c-0.3,0.4-0.7,0.9-1.1,1.6c-0.2,0.3-0.4,0.6-0.6,1
			c-0.1,0.2-0.2,0.4-0.3,0.5c-0.1,0.2-0.2,0.4-0.3,0.6c-0.4,0.8-0.9,1.7-1.3,2.7c-0.2,0.5-0.4,1-0.6,1.6c-0.2,0.5-0.3,1.1-0.5,1.7
			c-0.6,2.3-1,5-1,7.8c0,2.8,0.5,5.4,1.1,7.7c0.2,0.6,0.4,1.1,0.5,1.7c0.2,0.5,0.4,1,0.6,1.6c0.4,1,0.9,1.9,1.3,2.7
			c0.1,0.2,0.2,0.4,0.3,0.6c0.1,0.2,0.2,0.4,0.4,0.5c0.2,0.4,0.4,0.7,0.6,1c0.4,0.6,0.8,1.1,1.1,1.5c0.6,0.8,1,1.3,1,1.3
			S67.3,104,66.5,103.3z M70.7,99.5c-0.3-0.3-0.7-0.6-1.1-1.1c-0.2-0.2-0.4-0.5-0.6-0.7c-0.1-0.1-0.2-0.3-0.3-0.4
			c-0.1-0.1-0.2-0.3-0.3-0.5c-0.4-0.6-0.9-1.3-1.3-2.1c-0.2-0.4-0.4-0.8-0.6-1.2c-0.2-0.4-0.4-0.9-0.5-1.4c-0.7-1.9-1.1-4.1-1.2-6.4
			c0-2.3,0.5-4.5,1.1-6.4c0.2-0.5,0.4-0.9,0.5-1.4c0.2-0.4,0.4-0.8,0.6-1.2c0.4-0.8,0.9-1.5,1.3-2.1c0.1-0.2,0.2-0.3,0.3-0.5
			c0.1-0.1,0.2-0.3,0.3-0.4c0.2-0.3,0.4-0.5,0.6-0.7c0.4-0.5,0.8-0.8,1.1-1.1c0.6-0.6,0.9-0.9,0.9-0.9s-0.3,0.4-0.8,1
			c-0.2,0.3-0.6,0.7-0.8,1.2c-0.2,0.2-0.3,0.5-0.5,0.8c-0.1,0.1-0.2,0.3-0.3,0.4c-0.1,0.2-0.2,0.3-0.2,0.5c-0.3,0.7-0.7,1.3-1,2.1
			c-0.1,0.4-0.3,0.8-0.5,1.2c-0.1,0.4-0.3,0.9-0.4,1.3c-0.5,1.8-0.8,3.9-0.8,6c0,2.2,0.4,4.2,0.8,6c0.1,0.5,0.3,0.9,0.4,1.3
			c0.1,0.4,0.3,0.8,0.5,1.2c0.3,0.8,0.7,1.5,1,2.1c0.1,0.2,0.2,0.3,0.2,0.5c0.1,0.1,0.2,0.3,0.3,0.4c0.2,0.3,0.3,0.5,0.5,0.8
			c0.3,0.5,0.6,0.9,0.9,1.2c0.5,0.7,0.8,1,0.8,1S71.4,100,70.7,99.5z M88,101.5c-10.1,1.1-18.5-7.3-17.6-17.4
			c0.7-7.5,6.7-13.5,14.2-14.3c10.1-1.1,18.5,7.3,17.6,17.4C101.4,94.6,95.4,100.7,88,101.5z M104,97.1c-0.1,0.1-0.2,0.3-0.3,0.4
			c-0.2,0.3-0.4,0.5-0.6,0.7c-0.4,0.5-0.8,0.8-1.1,1.1c-0.6,0.6-0.9,0.9-0.9,0.9s0.3-0.4,0.8-1c0.2-0.3,0.6-0.7,0.8-1.2
			c0.2-0.2,0.3-0.5,0.5-0.8c0.1-0.1,0.2-0.3,0.3-0.4c0.1-0.2,0.2-0.3,0.2-0.5c0.3-0.7,0.7-1.3,1-2.1c0.1-0.4,0.3-0.8,0.5-1.2
			c0.1-0.4,0.3-0.9,0.4-1.3c0.5-1.8,0.8-3.9,0.8-6c0-2.2-0.4-4.2-0.8-6c-0.1-0.5-0.3-0.9-0.4-1.3c-0.1-0.4-0.3-0.8-0.5-1.2
			c-0.3-0.8-0.7-1.5-1-2.1c-0.1-0.2-0.2-0.3-0.2-0.5c-0.1-0.1-0.2-0.3-0.3-0.4c-0.2-0.3-0.3-0.5-0.5-0.8c-0.3-0.5-0.6-0.9-0.9-1.2
			c-0.5-0.7-0.8-1-0.8-1s0.3,0.3,1,0.9c0.3,0.3,0.7,0.6,1.1,1.1c0.2,0.2,0.4,0.5,0.6,0.7c0.1,0.1,0.2,0.3,0.3,0.4
			c0.1,0.1,0.2,0.3,0.3,0.5c0.4,0.6,0.9,1.3,1.3,2.1c0.2,0.4,0.4,0.8,0.6,1.2c0.2,0.4,0.4,0.9,0.5,1.4c0.7,1.9,1.1,4.1,1.2,6.4
			c0,2.3-0.5,4.5-1.1,6.4c-0.2,0.5-0.4,0.9-0.5,1.4c-0.2,0.4-0.4,0.8-0.6,1.2c-0.4,0.8-0.9,1.5-1.3,2.1
			C104.2,96.8,104.1,97,104,97.1z M108.3,100.7c-0.3,0.3-0.5,0.6-0.8,0.9c-0.5,0.6-0.9,1-1.3,1.4c-0.8,0.7-1.2,1.1-1.2,1.1
			s0.4-0.5,1-1.3c0.3-0.4,0.7-0.9,1.1-1.6c0.2-0.3,0.4-0.6,0.6-1c0.1-0.2,0.2-0.4,0.3-0.5c0.1-0.2,0.2-0.4,0.3-0.6
			c0.4-0.8,0.9-1.7,1.3-2.7c0.2-0.5,0.4-1,0.6-1.6c0.2-0.5,0.3-1.1,0.5-1.7c0.6-2.3,1-5,1-7.8c0-2.8-0.5-5.4-1.1-7.7
			c-0.2-0.6-0.4-1.1-0.5-1.7c-0.2-0.5-0.4-1-0.6-1.6c-0.4-1-0.9-1.9-1.3-2.7c-0.1-0.2-0.2-0.4-0.3-0.6c-0.1-0.2-0.2-0.4-0.4-0.5
			c-0.2-0.4-0.4-0.7-0.6-1c-0.4-0.6-0.8-1.1-1.1-1.5c-0.6-0.8-1-1.3-1-1.3s0.4,0.4,1.2,1.1c0.4,0.4,0.9,0.8,1.3,1.4
			c0.2,0.3,0.5,0.6,0.8,0.9c0.1,0.2,0.3,0.3,0.4,0.5c0.1,0.2,0.3,0.4,0.4,0.6c0.5,0.8,1.1,1.6,1.6,2.7c0.2,0.5,0.6,1,0.8,1.6
			c0.2,0.6,0.4,1.1,0.7,1.7c0.8,2.4,1.4,5.2,1.4,8.2c0,3-0.6,5.8-1.4,8.2c-0.2,0.6-0.4,1.2-0.7,1.7c-0.2,0.6-0.5,1.1-0.8,1.6
			c-0.5,1-1.1,1.9-1.6,2.7c-0.1,0.2-0.3,0.4-0.4,0.6C108.6,100.4,108.5,100.6,108.3,100.7z M112.1,105.1c-0.3,0.3-0.5,0.7-0.8,1
			c-0.3,0.3-0.5,0.5-0.8,0.8c-0.9,0.9-1.4,1.4-1.4,1.4s0.4-0.6,1.2-1.6c0.2-0.2,0.4-0.5,0.7-0.8c0.2-0.3,0.4-0.7,0.7-1
			c0.2-0.4,0.5-0.8,0.8-1.2c0.1-0.2,0.3-0.4,0.4-0.7c0.1-0.2,0.3-0.5,0.4-0.7c0.5-1,1.1-2.1,1.6-3.3c0.2-0.6,0.5-1.2,0.8-1.9
			c0.2-0.7,0.4-1.4,0.6-2.1c0.8-2.9,1.3-6.1,1.3-9.5c0-3.4-0.6-6.6-1.4-9.5c-0.2-0.7-0.4-1.4-0.7-2.1c-0.2-0.7-0.5-1.3-0.8-1.9
			c-0.5-1.2-1.1-2.3-1.6-3.3c-0.1-0.2-0.3-0.5-0.4-0.7c-0.1-0.2-0.3-0.4-0.4-0.7c-0.3-0.4-0.5-0.8-0.8-1.2c-0.3-0.4-0.5-0.7-0.7-1
			c-0.2-0.3-0.5-0.6-0.7-0.8c-0.8-1-1.2-1.6-1.2-1.6s0.5,0.5,1.4,1.4c0.2,0.2,0.5,0.5,0.8,0.7c0.3,0.3,0.5,0.6,0.8,1
			c0.3,0.4,0.6,0.7,0.9,1.1c0.2,0.2,0.3,0.4,0.5,0.6c0.2,0.2,0.3,0.5,0.5,0.7c0.6,1,1.4,2,1.9,3.3c0.3,0.6,0.7,1.2,0.9,1.9
			c0.3,0.7,0.5,1.4,0.8,2.1c1,2.9,1.7,6.3,1.7,9.9c0,3.6-0.7,7-1.6,9.9c-0.3,0.7-0.5,1.4-0.8,2.1c-0.3,0.7-0.6,1.3-0.9,1.9
			c-0.6,1.2-1.3,2.3-1.9,3.3c-0.2,0.2-0.3,0.5-0.5,0.7c-0.2,0.2-0.3,0.4-0.5,0.6C112.7,104.4,112.4,104.8,112.1,105.1z M115.7,109.7
			c-0.3,0.3-0.6,0.6-0.9,0.9c-1.1,1.1-1.7,1.7-1.7,1.7s0.5-0.7,1.5-1.8c0.2-0.3,0.5-0.6,0.8-1c0.3-0.3,0.5-0.8,0.8-1.2
			c0.3-0.4,0.6-0.9,0.9-1.4c0.2-0.3,0.3-0.5,0.5-0.8c0.1-0.3,0.3-0.6,0.5-0.9c0.6-1.2,1.4-2.4,1.9-3.9c0.3-0.7,0.7-1.4,0.9-2.2
			c0.3-0.8,0.5-1.6,0.8-2.4c0.9-3.4,1.5-7.2,1.6-11.2c0-4-0.7-7.8-1.7-11.2c-0.3-0.8-0.5-1.6-0.8-2.4c-0.3-0.8-0.6-1.5-0.9-2.2
			c-0.6-1.5-1.3-2.7-2-3.9c-0.2-0.3-0.3-0.6-0.5-0.9c-0.2-0.3-0.3-0.5-0.5-0.8c-0.3-0.5-0.7-1-1-1.4c-0.3-0.4-0.6-0.9-0.9-1.2
			c-0.3-0.4-0.6-0.7-0.8-1c-1-1.2-1.5-1.8-1.5-1.8s0.6,0.6,1.7,1.6c0.3,0.3,0.6,0.6,0.9,0.9c0.3,0.3,0.6,0.7,1,1.1
			c0.3,0.4,0.7,0.9,1.1,1.3c0.2,0.2,0.4,0.5,0.6,0.7c0.2,0.3,0.4,0.5,0.5,0.8c0.7,1.1,1.6,2.4,2.3,3.8c0.3,0.7,0.8,1.4,1.1,2.2
			c0.3,0.8,0.6,1.6,0.9,2.5c1.1,3.4,1.9,7.4,2,11.6c0,4.2-0.8,8.2-1.9,11.6c-0.3,0.8-0.6,1.7-0.9,2.5c-0.3,0.8-0.7,1.5-1.1,2.3
			c-0.7,1.5-1.5,2.7-2.2,3.9c-0.2,0.3-0.4,0.6-0.5,0.8c-0.2,0.3-0.4,0.5-0.6,0.7c-0.4,0.5-0.7,0.9-1.1,1.4
			C116.3,109,116,109.4,115.7,109.7z M123.8,108.6c-1.7,2.6-3.4,4.5-4.6,5.8c-0.6,0.6-1.1,1.1-1.4,1.4c-0.3,0.3-0.5,0.5-0.5,0.5
			s0.2-0.2,0.5-0.5c0.3-0.4,0.8-0.8,1.3-1.5c1.1-1.3,2.6-3.4,4.1-6c1.5-2.7,3.1-6,4.2-9.9c1.1-3.9,1.8-8.3,1.8-12.9
			c0-4.6-0.7-9-1.9-12.9c-1.1-3.9-2.7-7.2-4.3-9.8c-1.6-2.6-3.1-4.7-4.2-6c-0.5-0.7-1-1.2-1.3-1.5c-0.3-0.3-0.5-0.5-0.5-0.5
			s0.2,0.2,0.5,0.5c0.3,0.3,0.8,0.8,1.4,1.4c1.2,1.2,2.9,3.1,4.7,5.7c1.8,2.6,3.6,5.9,4.9,9.8c1.4,3.9,2.2,8.5,2.2,13.3
			c0,4.8-0.8,9.4-2.1,13.3C127.3,102.7,125.5,106,123.8,108.6z"/>
	</g>
	<path class="st0" d="M164.4,74.2L164.4,74.2c-7.4-2.9-9.9-12.1-5-18.4l0,0c6.6-8.5-0.5-20.7-11.2-19.1h0
		c-7.9,1.1-14.6-5.6-13.5-13.4c1.5-10.6-10.8-17.6-19.2-11v0c-6.2,4.9-15.4,2.5-18.4-4.8l0,0c-4.1-9.9-18.2-9.9-22.1,0.1h0
		c-2.9,7.4-12.1,9.9-18.4,5h0C48,6,35.8,13.1,37.3,23.7c1.1,7.9-5.6,14.6-13.4,13.5h0C13.3,35.8,6.3,48,12.9,56.5l0,0
		c4.9,6.2,2.5,15.4-4.8,18.4h0C-1.8,79-1.8,93.1,8.2,97h0c7.4,2.9,9.9,12.1,5,18.4c-6.6,8.5,0.5,20.7,11.2,19.1h0
		c7.9-1.1,14.6,5.6,13.5,13.4v0c-1.5,10.6,10.8,17.6,19.2,11l0,0c6.2-4.9,15.4-2.5,18.4,4.8l0,0c4.1,9.9,18.2,9.9,22.1-0.1
		c2.9-7.4,12.1-9.9,18.4-5l0,0c8.5,6.6,20.7-0.5,19.1-11.2v0c-1.1-7.9,5.6-14.6,13.4-13.5l0,0c10.6,1.5,17.6-10.8,11-19.2h0
		c-4.9-6.2-2.5-15.4,4.8-18.4l0,0C174.4,92.3,174.4,78.2,164.4,74.2z M157,85.3c0.2,39-31.4,70.8-70.4,71c-39,0.2-70.8-31.4-71-70.4
		C15.4,47,47,15.1,86,14.9C124.9,14.7,156.8,46.3,157,85.3z"/>
</g>
<path id="SVGID_x5F_1_x5F_" class="st1" d="M32.3,86.3c0-29.8,24.2-54,54-54c29.8,0,54,24.2,54,54"/>
<text><textPath  xlink:href="#SVGID_x5F_1_x5F_" startOffset="3.650000e-02%">
<tspan  class="st0" style="font-family:'BebasNeue'; font-size:16.263px; letter-spacing:200;">vinyl records</tspan></textPath>
</text>
<path id="SVGID_x5F_2_x5F_" class="st1" d="M18.8,84.7c0,37.3,30.2,67.5,67.5,67.5c37.3,0,67.5-30.2,67.5-67.5"/>
<text><textPath  xlink:href="#SVGID_x5F_2_x5F_" startOffset="0.25%">
<tspan  class="st0" style="font-family:'BebasNeue'; font-size:16.263px; letter-spacing:200;">music store</tspan></textPath>
</text>
<g>
	<polygon class="st0" points="145.7,72.4 138.6,92.7 145.6,88.1 140.1,109.9 152.9,81.8 144.6,85.4 	"/>
	<polygon class="st0" points="26.9,72.4 34,92.7 27,88.1 32.5,109.9 19.7,81.8 27.9,85.4 	"/>
</g>
<g>
	<path class="st0" d="M240.1,30.5l-17.8,110.3h-17.5L187,30.5h14.6l12,84.2l12-84.2H240.1z"/>
	<path class="st0" d="M248.6,140.8V30.5h14.7v110.3H248.6z"/>
	<path class="st0" d="M307.7,83.8V30.5h14.7v110.3h-14.7v-22l-15.8-50.2v72.2h-14.7V30.5h14.7L307.7,83.8z"/>
	<path class="st0" d="M360.7,140.8h-14.7v-40.6l-18.1-69.7h14.6l11.1,47.9h0.5l10-47.9h14.6l-17.8,69.7V140.8z"/>
	<path class="st0" d="M422,140.8h-35V30.5h14.7v96.9H422V140.8z"/>
	<path class="st0" d="M455,30.5h28.9c11.3,0,16.9,6.3,16.9,18.9v27.2c0,9.6-2.9,15.7-8.8,18.3l10.3,45.9h-14l-9.7-44.5h-8.9v44.5
		H455V30.5z M469.7,83.6h9.7c4.4,0,6.6-2.7,6.6-8V51.9c0-5.3-2.2-8-6.6-8h-9.7V83.6z"/>
	<path class="st0" d="M513.1,140.8V30.5h36.6v13.4h-21.8v33.5h19.4v13.4h-19.4v36.7h21.8v13.4H513.1z"/>
	<path class="st0" d="M604.3,115v7.1c0,12.5-5.9,18.7-17.7,18.7h-9.5c-11.8,0-17.7-6.2-17.7-18.7V49.2c0-12.5,5.9-18.7,17.7-18.7
		h9.5c11.8,0,17.7,6.2,17.7,18.7v12.4h-14.7V50.3c0-4.3-2.2-6.5-6.6-6.5H580c-3.9,0-5.8,2.2-5.8,6.5V121c0,4.3,1.9,6.5,5.8,6.5h3.7
		c3.9,0,5.8-2.2,5.8-6.5v-6H604.3z"/>
	<path class="st0" d="M632.9,140.8c-11.9,0-17.8-6.2-17.8-18.7V49.4c0-12.6,5.9-18.9,17.7-18.9h14.1c11.8,0,17.7,6.3,17.7,18.9v72.7
		c0,12.5-5.9,18.7-17.8,18.7H632.9z M636.4,127.4h7.5c3.9,0,5.8-2.2,5.8-6.5V50.3c0-4.3-2.2-6.5-6.6-6.5h-6.9
		c-4.3,0-6.5,2.2-6.5,6.5V121C629.8,125.3,632,127.4,636.4,127.4z"/>
	<path class="st0" d="M677.6,30.5h28.9c11.3,0,16.9,6.3,16.9,18.9v27.2c0,9.6-2.9,15.7-8.8,18.3l10.3,45.9h-14l-9.7-44.5h-8.9v44.5
		h-14.7V30.5z M692.3,83.6h9.7c4.4,0,6.6-2.7,6.6-8V51.9c0-5.3-2.2-8-6.6-8h-9.7V83.6z"/>
	<path class="st0" d="M735.6,140.8V30.5h25.7c13.8,0,20.7,7.1,20.7,21.2v73.1c0,10.7-5.9,16-17.7,16H735.6z M750.4,127.4h11.1
		c3.9,0,5.8-1.6,5.8-4.9V51.9c0-5.3-2.2-8-6.6-8h-10.3V127.4z"/>
	<path class="st0" d="M823.3,60.1v-9.7c0-4.4-2.2-6.6-6.5-6.6h-2.3c-4.2,0-6.3,2.2-6.3,6.6v18.3c0,2,0.4,3.4,1.2,4.1
		c0.8,0.7,2.2,1.6,4,2.8l14,7.5c3.1,1.7,5.2,3.1,6.5,4.1c1.3,1,2.3,2.2,3,3.5c0.7,1.4,1.1,4,1.1,7.9v23.5c0,12.4-5.9,18.6-17.8,18.6
		h-9.1c-11.8,0-17.7-6.8-17.7-20.3V115h14.7v6c0,4.3,2.2,6.5,6.6,6.5h2.6c3.9,0,5.8-2.2,5.8-6.5v-18.7c0-2-0.4-3.4-1.2-4.1
		c-0.8-0.7-2.2-1.6-4-2.8l-14-7.8c-3.1-1.6-5.3-3-6.7-4.1c-1.4-1.1-2.4-2.6-3-4.4c-0.6-1.8-0.9-4.1-0.9-7V49.4
		c0-12.6,5.9-18.9,17.7-18.9h9.2c11.8,0,17.7,6.3,17.7,18.9v10.8H823.3z"/>
</g>
</svg>
